# xmcd CD database file
#
# Track frame offsets:
#	187
#	18525
#	35550
#	52762
#	74625
#	102712
#	128775
#
# Disc length: 2046 seconds
#
# Revision: 1
# Processed by: cddbd v1.5.2PL0 Copyright (c) Steve Scherf et al.
# Submitted via: CDex 1.70beta3
#
DISCID=6207fc07
DTITLE=Sonny Stitt and Bunky Green - Soul In The Night
DYEAR=1966
DGENRE=Jazz
TTITLE0=Soun In The Night
TTITLE1=It's Awfully Nice To Be With You
TTITLE2=Hot Line
TTITLE3=Home Stretch
TTITLE4=The Spies
TTITLE5=One Alone
TTITLE6=Sneakin' Up On You
EXTD=YEAR: 1966
EXTT0=
EXTT1=
EXTT2=
EXTT3=
EXTT4=
EXTT5=
EXTT6=
PLAYORDER=
